<svg width="51" height="38" viewBox="0 0 51 38" fill="none" xmlns="http://www.w3.org/2000/svg">
<g clip-path="url(#clip0_1_4)" filter="url(#filter0_d_1_4)">
<path d="M10.2956 2.69047C11.5606 1.65063 34.4579 -1.09623 35.1944 0.474019C36.28 2.78845 38.5174 8.72792 36.1478 9.06866C33.7782 9.40941 12.7732 11.7212 11.2187 11.2878C9.2326 10.734 9.22105 3.57379 10.2956 2.69047Z" fill="white"/>
<path d="M5.27685 19.166C7.17269 18.1926 42.5494 14.3737 43.9915 15.6604C45.8999 17.3632 48.979 24.7377 45.228 26.016C41.7044 27.2167 8.70745 30.0728 6.4551 29.9986C3.34313 29.8961 3.46974 20.0939 5.27685 19.166Z" fill="white"/>
</g>
<defs>
<filter id="filter0_d_1_4" x="0" y="0" width="51" height="38" filterUnits="userSpaceOnUse" color-interpolation-filters="sRGB">
<feFlood flood-opacity="0" result="BackgroundImageFix"/>
<feColorMatrix in="SourceAlpha" type="matrix" values="0 0 0 0 0 0 0 0 0 0 0 0 0 0 0 0 0 0 127 0" result="hardAlpha"/>
<feOffset dy="4"/>
<feGaussianBlur stdDeviation="2"/>
<feComposite in2="hardAlpha" operator="out"/>
<feColorMatrix type="matrix" values="0 0 0 0 0 0 0 0 0 0 0 0 0 0 0 0 0 0 0.25 0"/>
<feBlend mode="normal" in2="BackgroundImageFix" result="effect1_dropShadow_1_4"/>
<feBlend mode="normal" in="SourceGraphic" in2="effect1_dropShadow_1_4" result="shape"/>
</filter>
<clipPath id="clip0_1_4">
<rect width="43" height="30" fill="white" transform="translate(4)"/>
</clipPath>
</defs>
</svg>
